<!-- Generated by IcoMoon.io -->
<svg version="1.1" xmlns="http://www.w3.org/2000/svg" width="32" height="32" viewBox="0 0 32 32">
<title>cart</title>
<path d="M31.843 13.445c0.018-0.096 0.018-0.197 0.006-0.329-0.024-0.257-0.173-0.52-0.448-0.568-2.248-0.424-4.55-0.335-6.864-0.155-0.006-0.024-0.006-0.048-0.024-0.078-1.070-1.877-1.907-3.88-2.989-5.757-0.711-1.226-1.949-3.533-3.659-3.426-0.311 0.024-0.616 0.275-0.592 0.61 0.155 2.015 2.942 7.88 3.695 8.956-0.975 0.072-1.943 0.126-2.906 0.126h-9.261c0.951-1.339 1.818-2.744 2.619-4.179 0.58-1.040 2.111-3.396 1.214-4.622-0.191-0.257-0.526-0.389-0.825-0.203-0.167 0.108-0.747 0.407-0.867 0.544-0.759 0.885-1.369 1.877-1.966 2.876-0.066 0.096-0.126 0.191-0.191 0.287-0.55 0.777-3.498 5.201-3.539 5.297h-4.496c-0.377 0-0.562 0.287-0.562 0.586-0.155 0.126-0.239 0.329-0.149 0.58 1.238 3.414 2.804 6.69 3.886 10.164 0.52 1.68 0.664 3.211 2.415 3.964 2.164 0.927 5.243 0.664 7.533 0.723 3.707 0.108 7.42-0.078 11.114-0.371 0.233-0.018 0.843-0.395 0.957-0.604 2.451-4.388 3.581-9.339 5.979-13.751 0.142-0.257 0.077-0.502-0.078-0.67zM5.381 24.356c-0.060 0-0.114 0.024-0.167 0.036-0.264-0.897-0.526-1.794-0.837-2.678-0.538-1.56-1.178-3.079-1.812-4.604 0.61 0 1.214 0 1.818 0.006-0.006 0.078 0 0.167 0.036 0.263 0.395 1.058 0.622 2.152 0.873 3.252 0.293 1.303 0.873 2.475 1.262 3.743-0.388-0.005-0.777-0.012-1.172-0.018zM7.707 24.405c0.030-0.102 0.042-0.209 0.006-0.335-0.341-1.124-0.855-2.17-1.16-3.306-0.329-1.22-0.532-2.457-0.963-3.647 0.723 0 1.441 0.006 2.158 0.006-0.060 0.143-0.066 0.317 0.024 0.496 1.016 2.099 1.088 4.454 1.405 6.726 0.006 0.042 0.030 0.072 0.042 0.114-0.502-0.019-1.011-0.042-1.513-0.054zM10.361 24.5c0.012-0.054 0.024-0.108 0.012-0.173-0.341-2.451-0.46-4.932-1.525-7.204h2.643c0.132 1.202 0.353 2.391 0.514 3.593 0.179 1.279 0.143 2.577 0.311 3.862-0.652-0.023-1.304-0.054-1.955-0.078zM13.512 24.626c0-0.018 0.006-0.030 0-0.054-0.167-1.291-0.167-2.583-0.311-3.874-0.126-1.202-0.383-2.386-0.514-3.581 0.723-0.006 1.447-0.018 2.17-0.024-0.012 2.505-0.167 5.004 0.054 7.503 0 0.030 0.018 0.048 0.024 0.078-0.478-0.012-0.951-0.030-1.423-0.048zM18.397 17.069c-0.036 2.463-0.969 7.551-0.909 7.659-0.466-0.006-0.933-0.012-1.399-0.024 0.006-0.042 0.018-0.078 0.018-0.132-0.221-2.493-0.066-4.986-0.054-7.485 0.783-0.012 1.566-0.024 2.35-0.042-0.001 0.012-0.006 0.017-0.006 0.024zM18.534 24.733c0.018-0.030 0.036-0.060 0.042-0.102 0.454-2.517 0.98-5.010 1.016-7.581 0-0.012-0.006-0.018-0.006-0.024 0.741-0.018 1.477-0.036 2.218-0.060-0.006 0.036-0.018 0.066-0.018 0.102 0.024 2.559-1.549 7.557-1.489 7.641-0.585 0.019-1.178 0.024-1.764 0.024zM21.308 24.673c0.048-0.084 1.698-5.052 1.674-7.623 0-0.048-0.018-0.084-0.030-0.126 0.843-0.024 1.68-0.066 2.517-0.102-0.167 2.565-1.244 5.291-2.057 7.718-0.7 0.054-1.405 0.102-2.105 0.132zM25.786 24.285c-0.359 0.048-0.717 0.096-1.070 0.132 0.825-2.433 1.782-5.064 1.949-7.617 0-0.012-0.006-0.018-0.006-0.036 0.927-0.048 1.847-0.096 2.774-0.161-1.111 2.607-3.408 7.647-3.647 7.683z"></path>
</svg>
