<svg aria-hidden="true" style="position: absolute; width: 0; height: 0; overflow: hidden;" version="1.1" xmlns="http://www.w3.org/2000/svg" xmlns:xlink="http://www.w3.org/1999/xlink">
<defs>
<symbol id="icon-info-text" viewBox="0 0 32 32">
<path d="M26.5 2h-21c-1.931 0-3.5 1.569-3.5 3.5v15.75c0 1.93 1.569 3.5 3.5 3.5h5.25v4.594c0 0.388 0.317 0.656 0.656 0.656 0.131 0 0.268-0.038 0.388-0.131l6.831-5.119h7.875c1.93 0 3.5-1.57 3.5-3.5v-15.75c0-1.931-1.57-3.5-3.5-3.5zM27.375 21.25c0 0.481-0.394 0.875-0.875 0.875h-8.75l-4.375 3.281v-3.281h-7.875c-0.481 0-0.875-0.394-0.875-0.875v-15.75c0-0.481 0.394-0.875 0.875-0.875h21c0.481 0 0.875 0.394 0.875 0.875v15.75z"></path>
</symbol>
<symbol id="icon-shopping-bag" viewBox="0 0 32 32">
<path d="M28.8 27.661l-1.832-20.633c-0.039-0.458-0.425-0.805-0.877-0.805h-3.769c-0.052-3.442-2.866-6.223-6.321-6.223s-6.269 2.781-6.321 6.223h-3.769c-0.458 0-0.838 0.347-0.877 0.805l-1.832 20.633c0 0.026-0.007 0.052-0.007 0.079 0 2.349 2.153 4.26 4.803 4.26h16.007c2.65 0 4.803-1.911 4.803-4.26 0-0.026 0-0.052-0.007-0.079zM16 1.767c2.48 0 4.502 1.989 4.555 4.456h-9.109c0.052-2.467 2.074-4.456 4.555-4.456zM24.003 30.233h-16.007c-1.662 0-3.010-1.099-3.036-2.454l1.754-19.782h2.958v2.683c0 0.491 0.393 0.883 0.883 0.883s0.883-0.393 0.883-0.883v-2.683h9.116v2.683c0 0.491 0.393 0.883 0.883 0.883s0.883-0.393 0.883-0.883v-2.683h2.958l1.76 19.782c-0.026 1.355-1.381 2.454-3.036 2.454z"></path>
</symbol>
<symbol id="icon-spade" viewBox="0 0 32 32">
<path d="M30.257 16.454c-0.012-2.46-1.014-4.683-2.628-6.294l-0-0-8.481-8.607c-0.806-0.805-1.918-1.303-3.147-1.303s-2.341 0.498-3.147 1.303l0-0-8.481 8.529c-1.614 1.611-2.616 3.834-2.628 6.292v0.002c-0 0.033-0.001 0.071-0.001 0.11 0 4.954 4.016 8.969 8.969 8.969 0.011 0 0.023-0 0.034-0h-0.002c-0.425 1.432-1.088 2.675-1.952 3.75l0.016-0.021c-0.219 0.268-0.352 0.615-0.352 0.992 0 0.869 0.705 1.574 1.574 1.574 0.019 0 0.037-0 0.056-0.001l-0.003 0h11.833c0.002 0 0.003 0 0.005 0 0.869 0 1.574-0.705 1.574-1.574 0-0.377-0.133-0.723-0.354-0.994l0.002 0.003c-0.849-1.053-1.513-2.297-1.916-3.653l-0.019-0.076c0.028 0 0.061 0.001 0.095 0.001 4.945 0 8.954-4.009 8.954-8.954 0-0.011-0-0.022-0-0.034v0.002zM25.442 20.593c-1.073 1.057-2.547 1.71-4.174 1.71-0.564 0-1.11-0.079-1.628-0.225l0.042 0.010c-0.040-0.004-0.087-0.006-0.134-0.006s-0.094 0.002-0.14 0.006l0.006-0h-0.315c-0.134 0.025-0.25 0.058-0.362 0.099l0.015-0.005h-0.236c-0.077 0.051-0.144 0.108-0.204 0.172l-0.001 0.001c-0.102 0.062-0.191 0.135-0.267 0.219l-0.001 0.001c-0.028 0.066-0.060 0.123-0.096 0.176l0.002-0.003c-0.059 0.097-0.122 0.215-0.179 0.337l-0.010 0.024c-0.004 0.042-0.006 0.092-0.006 0.142s0.002 0.099 0.006 0.148l-0-0.006c0 0.094 0 0.189 0 0.283v0 0c0.134 1.813 0.596 3.488 1.326 5.009l-0.036-0.084h-6.105c0.708-1.371 1.199-2.97 1.38-4.661l0.005-0.059c0-0.094 0-0.189 0-0.299 0.004-0.042 0.006-0.092 0.006-0.142s-0.002-0.099-0.006-0.148l0 0.006c-0.057-0.144-0.126-0.269-0.208-0.383l0.004 0.005c-0.028-0.060-0.059-0.112-0.096-0.159l0.001 0.002c-0.069-0.089-0.152-0.163-0.248-0.218l-0.004-0.002c-0.062-0.060-0.129-0.117-0.199-0.169l-0.005-0.004h-0.22c-0.105-0.050-0.226-0.088-0.354-0.109l-0.008-0.001h-0.299c-0.042-0.004-0.092-0.006-0.142-0.006s-0.099 0.002-0.148 0.006l0.006-0c-0.454 0.123-0.974 0.194-1.511 0.194-1.707 0-3.248-0.714-4.34-1.859l-0.002-0.002c-1.055-1.062-1.709-2.523-1.715-4.137v-0.001c0-0.005-0-0.012-0-0.018 0-1.611 0.656-3.068 1.715-4.12l0-0 8.497-8.529c0.229-0.223 0.543-0.361 0.889-0.361s0.66 0.138 0.889 0.362l-0-0 8.607 8.529c1.059 1.052 1.715 2.51 1.715 4.12 0 0.006 0 0.013-0 0.019v-0.001c-0.011 1.614-0.664 3.074-1.716 4.139l0.001-0.001z"></path>
</symbol>
</defs>
</svg>
